# xmcd
#
# Track frame offsets: 
#        150
#        18613
#        38570
#        55576
#        77390
#        95122
#        116474
#        133001
#        153648
#        170036
#        189962
#        204763
#        218962
#        229620
#        245309
#
# Disc length: 3522 seconds
#
# Revision: 2
# Processed by: cddbd v1.5.2PL0 Copyright (c) Steve Scherf et al.
# Submitted via: ExactAudioCopy v1.0b1
#
DISCID=bd0dc00f
DTITLE=Nightlosers - Rhythm and Bulz
DYEAR=2005
DGENRE=Blues
TTITLE0=Telephone Blues
TTITLE1=One Last Try
TTITLE2=Six Days on the Road
TTITLE3=Little Red Rooster
TTITLE4=Sophisticated Mama
TTITLE5=Ain't Coming Back
TTITLE6=Good Understanding
TTITLE7=Sporting Life
TTITLE8=Man of Many Words
TTITLE9=If You Want Me to Love You
TTITLE10=Mind Your Own Business
TTITLE11=My Babe
TTITLE12=Petre Butch
TTITLE13=Nu mai plange baby
TTITLE14=Dragostea-i ca si o raie
EXTD=
EXTT0=
EXTT1=
EXTT2=
EXTT3=
EXTT4=
EXTT5=
EXTT6=
EXTT7=
EXTT8=
EXTT9=
EXTT10=
EXTT11=
EXTT12=
EXTT13=
EXTT14=
PLAYORDER=
